<svg xmlns="http://www.w3.org/2000/svg" viewBox="0 0 141.11 117.12"><defs><style>.cls-1{fill:#1a1a1a;}.cls-2{fill:#e6e6e6;}.cls-3{fill:#b3b3b3;}.cls-4{fill:#4d4d4d;}.cls-5{fill:#ccc;}.cls-6,.cls-8{fill:#c46627;}.cls-6,.cls-9{stroke:#d37300;}.cls-11,.cls-13,.cls-6,.cls-7,.cls-9{stroke-miterlimit:10;}.cls-11,.cls-6,.cls-7,.cls-9{stroke-width:0.25px;}.cls-7{fill:#915513;stroke:#704c24;}.cls-11,.cls-9{fill:none;}.cls-10{fill:#eaaa1b;}.cls-11{stroke:#a3794b;}.cls-12,.cls-13{fill:#ed8924;}.cls-13{stroke:#aa4d00;}</style></defs><title>Asset 2</title><g id="Layer_2" data-name="Layer 2"><g id="svg8"><g id="layer3"><g id="g3912"><g id="g3934"><rect id="rect3722" class="cls-1" x="76.87" y="60.59" width="31.62" height="27.5" transform="translate(-6.01 8.19) rotate(-4.9)"/><g id="g3727"><rect id="rect10" x="67.51" y="31.41" width="31.62" height="27.5" transform="translate(-3.55 7.29) rotate(-4.9)"/><rect id="rect12" class="cls-2" x="54.05" y="43.89" width="31.62" height="27.5" transform="translate(-4.67 6.18) rotate(-4.9)"/><rect id="rect14" class="cls-1" x="40.03" y="58.21" width="31.62" height="27.5" transform="translate(-5.95 5.04) rotate(-4.9)"/></g><rect id="rect3739" class="cls-1" x="32.62" y="28.22" width="31.62" height="27.5" transform="translate(-3.41 4.29) rotate(-4.9)"/><rect id="rect3742" class="cls-3" x="91.99" y="45.11" width="31.62" height="27.5" transform="translate(-4.64 9.43) rotate(-4.9)"/><rect id="rect3747" class="cls-3" x="22.54" y="46.59" width="31.62" height="27.5" transform="translate(-5.02 3.5) rotate(-4.9)"/><rect id="rect3749" class="cls-4" x="62.84" y="75.21" width="31.62" height="27.5" transform="translate(-7.32 7.05) rotate(-4.9)"/><rect id="rect3749-1" class="cls-4" x="53.91" y="15.49" width="31.62" height="27.5" transform="translate(-2.24 6.07) rotate(-4.9)"/><rect id="rect3775" class="cls-2" x="8.52" y="60.91" width="31.62" height="27.5" transform="translate(-6.29 2.35) rotate(-4.9)"/><rect id="rect3775-0" class="cls-2" x="108.37" y="57.89" width="31.62" height="27.5" transform="translate(-5.67 10.87) rotate(-4.9)"/><rect id="rect3775-0-1" class="cls-5" x="42.38" y="85.61" width="31.62" height="27.5" transform="translate(-8.28 5.34) rotate(-4.9)"/><rect id="rect3775-0-6" class="cls-5" x="65.16" y="4" width="31.62" height="27.5" transform="translate(-1.22 6.98) rotate(-4.9)"/><rect id="rect3775-1" class="cls-2" x="1.12" y="30.93" width="31.62" height="27.5" transform="translate(-3.76 1.61) rotate(-4.9)"/><rect id="rect3775-0-63" class="cls-2" x="99.02" y="28.7" width="31.62" height="27.5" transform="translate(-3.21 9.97) rotate(-4.9)"/><rect id="rect3775-0-63-1" class="cls-1" x="94.34" y="72.51" width="31.62" height="27.5" transform="translate(-6.97 9.73) rotate(-4.9)"/><rect id="rect3775-0-63-9" class="cls-1" x="22.41" y="18.19" width="31.62" height="27.5" transform="translate(-2.59 3.38) rotate(-4.9)"/><rect id="rect3775-0-63-6" class="cls-1" x="10.87" y="88.31" width="31.62" height="27.5" transform="translate(-8.62 2.65) rotate(-4.9)"/><rect id="rect3775-0-63-92" class="cls-1" x="96.67" y="1.3" width="31.62" height="27.5" transform="translate(-0.87 9.67) rotate(-4.9)"/></g></g></g><polygon class="cls-6" points="49.79 63.18 45.04 67.92 39.57 73.42 35.59 77.4 39.38 82.43 51.98 73.94 63.95 69.59 59.22 70.09 56.94 65.91 60.79 55.31 49.79 63.18"/><path class="cls-7" d="M67.37,65.42l.94-.24,1.39-.36,1.12.45,2.26.15,2.27.24,1.56.21,2,1,1.26.15.94.76.45-.12.12.45.12.45.94-.24.49.88.69-.18.45-.12.63.58.54-1.63,1.3,1.15-.09-2.2L89,68.86l.57.33.45-.12.33-.57.36.39.88.51.27-.81-.36-1.39-.24-.94-.18-.69.81.27.49.88.45-.12,2.48,1.8L93.81,66.3l-.36-1.39-.3-1.14.94-.24,1,1,.63.58.63.58.24.94.73.82.12.45-.64-4.29s-1.09-3.17,1.51.09,2.79,3.61,2.79,3.61l0-2.38-.12-.45L100.64,63l.27-.81-.3-1.14.27-.81s1.42.6,1.61,1.33l.36,1.39.73.82.18.69.18.69.63.58.27-.81-.12-.45.21-1.06-.24-.94.33-.57.43.63.63.58.06.25,1.18,1.66.85-2.45-.3-1.14-.24-.94.06-.76-.18-.69-.18-.69-.12-.45-.12-.45,1.32.39.91,1.51.85,1.27.24.94.18.69.31,3.9L106.83,70l-4.22.38-5,1.66L93.88,74l-3,1-4,.82-5.22.92-4.81-1.2-14-2.22-5.22.92.05-3.51.6-1.42,1.45-.16,1.63.54,1.49.84,2.78-.72,1.15-1.3-.18-.69L67,66.49Z"/><path class="cls-7" d="M67.64,57.33,74,54.94l3.15,2.38L77,55l2.39,1.73.23-2.81,1.82,4,1.75,1-.34-6.86s1.28,6.61,1.73,6.49,1.32-9,1.32-9L88,51.69l.36,1.39.36,1.39,1.26.15,0-1.33.36-1.24L90,51.11l.15-1.26-.24-.94L89.71,48l3.73,7.46s1.63-.42,1.78-1.73.24-4.27.24-4.27l.21-1.56-.16-1.45-.18-.69.15-1.26,1,1.72.6,2.33.24.94-.27.81.63.58.63-.43.33-.57-.18-.69L98.89,48,99,46.51l-.22-4.94L99,44.76l-.24-.94-.18-.69-.12-.45Z"/><path class="cls-8" d="M40.65,66.64c-.51-.13-2-3.68-2-3.68l-3.74,1.76.73.82,1,1,.67,1.57-.06.76,1.75,0,.94-.24a.87.87,0,0,0,.58-.63C40.58,67.4,41.16,66.73,40.65,66.64Z"/><path class="cls-9" d="M40.65,66.64c-.51-.13-2-3.68-2-3.68l-3.74,1.76.73.82,1,1,.67,1.57-.06.76,1.75,0,.94-.24a.87.87,0,0,0,.58-.63C40.58,67.4,41.16,66.73,40.65,66.64Z"/><polygon class="cls-10" points="46.1 75.84 45.79 76.66 46.64 77.93 47.09 77.81 48.21 74.55 46.1 75.84"/><polygon class="cls-11" points="46.1 75.84 45.79 76.66 46.64 77.93 47.09 77.81 48.21 74.55 46.1 75.84"/><path class="cls-9" d="M51.23,52.36,51,51.67l-.1-1.2L50.1,49.2l-.69.18a2.61,2.61,0,0,0-.84,1.49c-.06.76-.15,1.26-.15,1.26l.24.94.42,1.63L50,56.22l1.14-.3.36-2.32Z"/><path class="cls-9" d="M75,44.54a1.09,1.09,0,0,0-.45,1.12,1.75,1.75,0,0,0,.79,1l.25-.06Z"/><polygon class="cls-10" points="74.48 48.37 73.85 47.8 73.7 49.1 74 50.25 75.47 49.38 74.48 48.37"/><polygon class="cls-11" points="74.48 48.37 73.85 47.8 73.7 49.1 74 50.25 75.47 49.38 74.48 48.37"/><path class="cls-10" d="M70.52,81.73l-.3-1.14-1.69-.78-.69.18s.13,3.2.31,3.9a11.9,11.9,0,0,0,.73,1.78s.76.06.94-.24.9-1.24.9-1.24l.21-1.06Z"/><path class="cls-11" d="M70.52,81.73l-.3-1.14-1.69-.78-.69.18s.13,3.2.31,3.9a11.9,11.9,0,0,0,.73,1.78s.76.06.94-.24.9-1.24.9-1.24l.21-1.06Z"/><path class="cls-12" d="M106.94,66.71h0v0Z"/><path class="cls-9" d="M106.94,66.71h0v0Z"/><path class="cls-13" d="M119.31,65.28l-.22-.85-.15-.55-.15-.55-.22-.85-.22-.85-.15-.55L118,60.2l-.22-.85-1-.33-.52-.78-.52-.78-.55.15-.08.93-.08.93-.3.08-.08.93-.48.45-.08.93-.15.63.22.85.15.55.3,1.16-.7-.41-.45-.48-.52-.78-.45-.48-.22-.85-.15-.55-.52-.78-1.3-1.49-1.75-.73.44,1.71.22.85.22.85.3,1.16-.25,1.3-.15.63.08.3.08.3.14.5h0v.05a1.81,1.81,0,0,1,.08.3,1.27,1.27,0,0,1-.08.93l.3,1.16-1.16.3-.44-1.71-.67-1.33-.22-.85-.45-.48-.52-.78-.52-.78-.78-.71-.52-.78-.85.22-.48.45.45.48.22.85-.15.63.22.85.22.85.15.55-.15.63.52.78a5.91,5.91,0,0,1-.33,1l.3,1.16-.55.15L103,69.1V67.87l-.37-1.41L102,65.13l-1-1.26-1-1.26L98.93,62l-1.08-.63-1.16.3.52.78.22.85.3,1.16.67,1.33.3,1.16-.15.63-.08.93.15.55.22.85-.15.63.27.8-.85.22-.37-1.41-.22-.85L97,68.51l-.7-.41-.9-1-.52-.78-1.08-.63L93,65l-.25,1.3.52.78.22.85v1.23l.15.55.22.85v1.23l.22.85-.1.62-.33,1-1.33.67-.19-1.78L90.9,72l-.18,1.55L90.83,75l-.48.45-.78-.71L89.06,74l-.22-.85-.22-.85-.15-.55-.67-1.33-.6-1.08-.9-1-.9-1-.63-.15-.55.15.6,1.08.3,1.16.08.3.3,1.16.15.55.22.85-.08.93-.18,1.55-.71.78L84.13,74,84,73.45l-.6-1.08-.78-.71-.7-.41.75,1.63-.33,1,.15.55-.15.63-.15.63L81,76l-.42-2.64-.89-2.19-.78-.71-1.08-.63.63,1.44a3.3,3.3,0,0,1,.23,1l.08,1-.56,1.38.08.3.22.85-1.12-1.86-.78-.71-.7-.41-.67-1.33-.33,1,.3,1.16-.15.63.22.85-.48.45-.22-.85-.52-.78.15-.63-.06,0a.77.77,0,0,0-1.23.71l0,.25-.55.15.22.85-1.93-.41-2.76-1.11-1.3-.25-1.3-.25-1-.33-1.93-.41-1.71.44-2.54-.26-1.78.19L54.6,73l-1.48.12-1.71.44-2.16,0-2.41,1.27-1.41.37-1.16.3,2.93-3.83.59-2.3.73-1.75,0-2.16-.22-.85,1.45.86.45.48s-.41.7,1,.33l2.26-.59,1.08.63.7.41s-1.52,2.23,1.16-.3a9,9,0,0,0,2-2.62c.35-.75.42-1.21,1.16-1.58a10.17,10.17,0,0,0,1.86-1.12l-.15-.55.85-.22.85-.22,1.16-.3,1.16-.3,1.55.18.93.08,2,5.28s1-.9,1-3.31a6.52,6.52,0,0,0-.56-3.19L71,58a3.79,3.79,0,0,0,1.27,2.41l1.15.93-.16-3.94,1.16-.3.6,1.08.44,1.71.08.3.6.46a.49.49,0,0,1,.06.71,1,1,0,0,0-.22.48l0,.16a.49.49,0,0,0,.41.58.84.84,0,0,1,.71,1.12l1-.9.25-1.3-.9-1,.41-.7-.3-1.16L77.07,57l-.3-1.16.85-.22.55-.15.22.85.75,1.63v1.23l.6,1.08.22.85.15.55.15.55a.58.58,0,0,0,.7.41l.3-.08-.08-.3a.87.87,0,0,1,.63-1.08l-.37-1.41.23-.33a2.46,2.46,0,0,0,.2-2.58l-.34-2.33L81.43,53l1,.33.45.48.78.71.45.48.52.78.3,1.16.37,1.41,1.16-.3-.12-1.48L86,55.42l.18-1.55-.67-1.33L85.4,52l-.22-.85.15-.63,1.16-.3,2.38,2.12L90,54.18l1,1.56.22.85.3,1.16,1.16-.3.41-.7.18-1.55-.12-1.48V52.49l-.44-1.71-.3-1.16-.52-.78-.37-1.41L93,46.14l2-1.45,1.56-1,3.43,3.68,2.35,3h0a2.51,2.51,0,0,0,1.41,1.58l.27.13.22.85a.58.58,0,0,0,.7.41l.55-.15-.12-1.48.25-1.3-.44-1.71-.6-1.08-.44-1.71-.6-1.08-1-1.26-1-1.26-.9-1-.3-1.16,1.26-1L104,41.93l.7.41.78.71.45.48.22.85.15.55.7.41.22.85.15.55.45.48a1.33,1.33,0,0,1,.52.78l.15.55.7.41.38.23,1.22,1.18L110.43,48l.15-.63-.15-.55-.22-.85.15-.63-.15-.55-.75-1.63-.6-1.08-.67-1.33-.52-.78-.44-1.71-.6-1.08-.15-.55-.52-.78-.45-.48L105.15,34l.93-1.15.55-.15,1.41-.37,1,.33,1.16,2.94.82,1.94,1.21.42.38.23.78-.52-.33,1,.55-.15.52.78.18-1.55-1.2-2.11-.67-1.33-.37-1.41-.37-1.41-.3-1.16-1.75-2-.9-1-1.12-1.86-1.75-.73V23.5l-.78-.71-.6-1.08-.45-.48-.7-.41-.7-.41-1.38-.56-1.16.3-.78-.71-.55.15-1.3-.25-.45-.48-2.16,0-1.3-.25-2.41,0-1.86-.11-1.41.37-1.41.37-1.16.3-.85.22-1.3-.25-2,.52-.85.22-1.56,1-7.24,2.53-.78.52-.55.15-.23.38-.55.15-1.08.6-.93-.08L65.71,26l-.85.22-.48.45-.48.45-.85.22-1.16.3-.71.78-.85.22-.55.15-.85.22-2.16,0-3.42.89-1.78.19-1.48.12-1.71.44-1.78.19-1.71.44-1.48.12-.85.22-.85.22-2.16,0-4.34.86-1.63.75s.33-1-.9-1S30.73,32,30.4,33a16.31,16.31,0,0,0-.22,3.71l-2.3-.59H26.65l-.15-.55-.38-.23-.38-.23-.55.15-.55.15-.55.15-.55.15-.63-.15-1-.33-.7-.41-.63,1.08-.85.22-.85.22-.41.7-1.08.6-.85.22-.85.22-.78.52-.41.7-.71.78-1.18,1.22-.71.78-.85.22-.71.78.3,1.16-.41.7.44,1.71A8.51,8.51,0,0,0,9.77,49l-.25,1.3s.08.3.15.55a6,6,0,0,1-.49,1.63l-.4,1.42.3,1.16s-.18,7.35.9,8a2.93,2.93,0,0,1,1.2,2.11l.7.41.3,1.16.78.71.52.78.6,1.08.52.78.52.78.45.48,1,1.26.45.48.78.71.22.85-.41.7.22.85.45.48.22.85.67,1.33.12,1.48L20,82l-.25,1.3.52.78,1.38.56.63.15,1.3.25-.42,1.11-1.08.6s-1.78.19-.41,1.93a19.64,19.64,0,0,1,2.19,3.67l.82,1.94,1.08.63,1.3.25.22.85s.38.23.85-.22l.48-.45.85-.22,1.16-.3.55-.15,1,.33.7.41.55-.15.3-.08.93.08s-.45-.48.3-.08l.7.41.55-.15.78.71.3-.08,1.16-.3,1.08.63.55-.15,2.79.19L48,96.29l4.87-.08,1.86.11,2.41,0L59.26,96,63,95l2.87-.74,2.94-.49L71.65,93l1.71-.44L75.62,92l2.56-.67,2-.52,2.71-1.35,2.56-.67,2.26-.59,3-.19L93,87.4l1.56-1,2-.52,2.26-.59,1.86.11,3.12-.81,2.71-1.35s-.15-.55,1.16-.3a3.74,3.74,0,0,0,2.56-.67s.08.3.55-.15.45.48,1.49-1.3,1.64-2,1.64-2l1.26-1,.33-1,.63-1.08.71-.78-.22-.85.71-.78-.12-1.48.71-.78-.15-.55.08-.93.55-.15-.15-.55.33-1,.33-1-.15-.55ZM85.09,21.89s9.22-2.18,11.55-1.28,2.08-.27,3.05,2.22,4,3.78,1.16,4.27a8.32,8.32,0,0,1-5.72-.93,28.93,28.93,0,0,0-3.38-1.22l-3.24-.66-2.3-.59L84,23.36l-1.55-.18Zm-16,15.6,1.26-2.15.71-.78,1-.9,1.86.11,1,1.26,0,2.41-1,3.06-2.64,1.6-1.93-.41-.67-2.56ZM45.35,33.13l1.41-.37,1.71-.44.78.71,1.41-.37,1.71-.44.85-.22,1.55.18,1.63.49,2.23.33.78.71.7.41.63.15.3,1.16.22.85.3,1.16.12,1.48.3,1.16-.18,1.55a24.33,24.33,0,0,0-1.29,3.08c-.89,2.38-1,.9-1,.9l-.3-1.16-.6-1.08-.52-2c-.22-.85-.63-.15-1.63-.49s-2,1.45-2,1.45l-1.26,1-1.71.44-.55.15L50.65,43l-1-1.26-.3-1.16-.45-.48-.9-1-.52-.78-2.87-5.06ZM48.6,43l.9,1,2,2.82,1.9,2.57.3,1.16-.33,1L50.39,47.4s-.11-2.71-2.23-1.52-3-2-3-2l-.52-2-.52-2A33.56,33.56,0,0,1,48.6,43ZM32,76.9l-4-1.47.23-9.31L33,67.47,33.5,71l.5,3.66Zm6.45,6.87,8.8.32.36,2.54Z"/><path class="cls-9" d="M119.31,65.28l-.22-.85-.15-.55-.15-.55-.22-.85-.22-.85-.15-.55L118,60.2l-.22-.85-1-.33-.52-.78-.52-.78-.55.15-.08.93-.08.93-.3.08-.08.93-.48.45-.08.93-.15.63.22.85.15.55.3,1.16-.7-.41-.45-.48-.52-.78-.45-.48-.22-.85-.15-.55-.52-.78-1.3-1.49-1.75-.73.44,1.71.22.85.22.85.3,1.16-.25,1.3-.15.63.08.3.08.3.14.5h0v.05a1.81,1.81,0,0,1,.08.3,1.27,1.27,0,0,1-.08.93l.3,1.16-1.16.3-.44-1.71-.67-1.33-.22-.85-.45-.48-.52-.78-.52-.78-.78-.71-.52-.78-.85.22-.48.45.45.48.22.85-.15.63.22.85.22.85.15.55-.15.63.52.78a5.91,5.91,0,0,1-.33,1l.3,1.16-.55.15L103,69.1V67.87l-.37-1.41L102,65.13l-1-1.26-1-1.26L98.93,62l-1.08-.63-1.16.3.52.78.22.85.3,1.16.67,1.33.3,1.16-.15.63-.08.93.15.55.22.85-.15.63.27.8-.85.22-.37-1.41-.22-.85L97,68.51l-.7-.41-.9-1-.52-.78-1.08-.63L93,65l-.25,1.3.52.78.22.85v1.23l.15.55.22.85v1.23l.22.85-.1.62-.33,1-1.33.67-.19-1.78L90.9,72l-.18,1.55L90.83,75l-.48.45-.78-.71L89.06,74l-.22-.85-.22-.85-.15-.55-.67-1.33-.6-1.08-.9-1-.9-1-.63-.15-.55.15.6,1.08.3,1.16.08.3.3,1.16.15.55.22.85-.08.93-.18,1.55-.71.78L84.13,74,84,73.45l-.6-1.08-.78-.71-.7-.41.75,1.63-.33,1,.15.55-.15.63-.15.63L81,76l-.42-2.64-.89-2.19-.78-.71-1.08-.63.63,1.44a3.3,3.3,0,0,1,.23,1l.08,1-.56,1.38.08.3.22.85-1.12-1.86-.78-.71-.7-.41-.67-1.33-.33,1,.3,1.16-.15.63.22.85-.48.45-.22-.85-.52-.78.15-.63-.06,0a.77.77,0,0,0-1.23.71l0,.25-.55.15.22.85-1.93-.41-2.76-1.11-1.3-.25-1.3-.25-1-.33-1.93-.41-1.71.44-2.54-.26-1.78.19L54.6,73l-1.48.12-1.71.44-2.16,0-2.41,1.27-1.41.37-1.16.3,2.93-3.83.59-2.3.73-1.75,0-2.16-.22-.85,1.45.86.45.48s-.41.7,1,.33l2.26-.59,1.08.63.7.41s-1.52,2.23,1.16-.3a9,9,0,0,0,2-2.62c.35-.75.42-1.21,1.16-1.58a10.17,10.17,0,0,0,1.86-1.12l-.15-.55.85-.22.85-.22,1.16-.3,1.16-.3,1.55.18.93.08,2,5.28s1-.9,1-3.31a6.52,6.52,0,0,0-.56-3.19L71,58a3.79,3.79,0,0,0,1.27,2.41l1.15.93-.16-3.94,1.16-.3.6,1.08.44,1.71.08.3.6.46a.49.49,0,0,1,.06.71,1,1,0,0,0-.22.48l0,.16a.49.49,0,0,0,.41.58.84.84,0,0,1,.71,1.12l1-.9.25-1.3-.9-1,.41-.7-.3-1.16L77.07,57l-.3-1.16.85-.22.55-.15.22.85.75,1.63v1.23l.6,1.08.22.85.15.55.15.55a.58.58,0,0,0,.7.41l.3-.08-.08-.3a.87.87,0,0,1,.63-1.08l-.37-1.41.23-.33a2.46,2.46,0,0,0,.2-2.58l-.34-2.33L81.43,53l1,.33.45.48.78.71.45.48.52.78.3,1.16.37,1.41,1.16-.3-.12-1.48L86,55.42l.18-1.55-.67-1.33L85.4,52l-.22-.85.15-.63,1.16-.3,2.38,2.12L90,54.18l1,1.56.22.85.3,1.16,1.16-.3.41-.7.18-1.55-.12-1.48V52.49l-.44-1.71-.3-1.16-.52-.78-.37-1.41L93,46.14l2-1.45,1.56-1,3.43,3.68,2.35,3h0a2.51,2.51,0,0,0,1.41,1.58l.27.13.22.85a.58.58,0,0,0,.7.41l.55-.15-.12-1.48.25-1.3-.44-1.71-.6-1.08-.44-1.71-.6-1.08-1-1.26-1-1.26-.9-1-.3-1.16,1.26-1L104,41.93l.7.41.78.71.45.48.22.85.15.55.7.41.22.85.15.55.45.48a1.33,1.33,0,0,1,.52.78l.15.55.7.41.38.23,1.22,1.18L110.43,48l.15-.63-.15-.55-.22-.85.15-.63-.15-.55-.75-1.63-.6-1.08-.67-1.33-.52-.78-.44-1.71-.6-1.08-.15-.55-.52-.78-.45-.48L105.15,34l.93-1.15.55-.15,1.41-.37,1,.33,1.16,2.94.82,1.94,1.21.42.38.23.78-.52-.33,1,.55-.15.52.78.18-1.55-1.2-2.11-.67-1.33-.37-1.41-.37-1.41-.3-1.16-1.75-2-.9-1-1.12-1.86-1.75-.73V23.5l-.78-.71-.6-1.08-.45-.48-.7-.41-.7-.41-1.38-.56-1.16.3-.78-.71-.55.15-1.3-.25-.45-.48-2.16,0-1.3-.25-2.41,0-1.86-.11-1.41.37-1.41.37-1.16.3-.85.22-1.3-.25-2,.52-.85.22-1.56,1-7.24,2.53-.78.52-.55.15-.23.38-.55.15-1.08.6-.93-.08L65.71,26l-.85.22-.48.45-.48.45-.85.22-1.16.3-.71.78-.85.22-.55.15-.85.22-2.16,0-3.42.89-1.78.19-1.48.12-1.71.44-1.78.19-1.71.44-1.48.12-.85.22-.85.22-2.16,0-4.34.86-1.63.75s.33-1-.9-1S30.73,32,30.4,33a16.31,16.31,0,0,0-.22,3.71l-2.3-.59H26.65l-.15-.55-.38-.23-.38-.23-.55.15-.55.15-.55.15-.55.15-.63-.15-1-.33-.7-.41-.63,1.08-.85.22-.85.22-.41.7-1.08.6-.85.22-.85.22-.78.52-.41.7-.71.78-1.18,1.22-.71.78-.85.22-.71.78.3,1.16-.41.7.44,1.71A8.51,8.51,0,0,0,9.77,49l-.25,1.3s.08.3.15.55a6,6,0,0,1-.49,1.63l-.4,1.42.3,1.16s-.18,7.35.9,8a2.93,2.93,0,0,1,1.2,2.11l.7.41.3,1.16.78.71.52.78.6,1.08.52.78.52.78.45.48,1,1.26.45.48.78.71.22.85-.41.7.22.85.45.48.22.85.67,1.33.12,1.48L20,82l-.25,1.3.52.78,1.38.56.63.15,1.3.25-.42,1.11-1.08.6s-1.78.19-.41,1.93a19.64,19.64,0,0,1,2.19,3.67l.82,1.94,1.08.63,1.3.25.22.85s.38.23.85-.22l.48-.45.85-.22,1.16-.3.55-.15,1,.33.7.41.55-.15.3-.08.93.08s-.45-.48.3-.08l.7.41.55-.15.78.71.3-.08,1.16-.3,1.08.63.55-.15,2.79.19L48,96.29l4.87-.08,1.86.11,2.41,0L59.26,96,63,95l2.87-.74,2.94-.49L71.65,93l1.71-.44L75.62,92l2.56-.67,2-.52,2.71-1.35,2.56-.67,2.26-.59,3-.19L93,87.4l1.56-1,2-.52,2.26-.59,1.86.11,3.12-.81,2.71-1.35s-.15-.55,1.16-.3a3.74,3.74,0,0,0,2.56-.67s.08.3.55-.15.45.48,1.49-1.3,1.64-2,1.64-2l1.26-1,.33-1,.63-1.08.71-.78-.22-.85.71-.78-.12-1.48.71-.78-.15-.55.08-.93.55-.15-.15-.55.33-1,.33-1-.15-.55ZM85.09,21.89s9.22-2.18,11.55-1.28,2.08-.27,3.05,2.22,4,3.78,1.16,4.27a8.32,8.32,0,0,1-5.72-.93,28.93,28.93,0,0,0-3.38-1.22l-3.24-.66-2.3-.59L84,23.36l-1.55-.18Zm-16,15.6,1.26-2.15.71-.78,1-.9,1.86.11,1,1.26,0,2.41-1,3.06-2.64,1.6-1.93-.41-.67-2.56ZM45.35,33.13l1.41-.37,1.71-.44.78.71,1.41-.37,1.71-.44.85-.22,1.55.18,1.63.49,2.23.33.78.71.7.41.63.15.3,1.16.22.85.3,1.16.12,1.48.3,1.16-.18,1.55a24.33,24.33,0,0,0-1.29,3.08c-.89,2.38-1,.9-1,.9l-.3-1.16-.6-1.08-.52-2c-.22-.85-.63-.15-1.63-.49s-2,1.45-2,1.45l-1.26,1-1.71.44-.55.15L50.65,43l-1-1.26-.3-1.16-.45-.48-.9-1-.52-.78-2.87-5.06ZM48.6,43l.9,1,2,2.82,1.9,2.57.3,1.16-.33,1L50.39,47.4s-.11-2.71-2.23-1.52-3-2-3-2l-.52-2-.52-2A33.56,33.56,0,0,1,48.6,43ZM32,76.9l-4-1.47.23-9.31L33,67.47,33.5,71l.5,3.66Zm6.45,6.87,8.8.32.36,2.54Z"/><path class="cls-8" d="M46.84,50.91c.63-.43-.58-4.08-1.19-4.41s-2.52-3.8-2.52-3.8-1.57-.33-1.63-.54-1.32-.39-1.32-.39l-1.63.42-2.09,1.54L36,44.86l-.82.73-.48,2.87L37.37,52l3.14-.34,1.73,1.78.88,3.22,1.54,2.09,2.53-.66.6-3.39S46.2,51.34,46.84,50.91Z"/><path class="cls-9" d="M46.84,50.91c.63-.43-.58-4.08-1.19-4.41s-2.52-3.8-2.52-3.8-1.57-.33-1.63-.54-1.32-.39-1.32-.39l-1.63.42-2.09,1.54L36,44.86l-.82.73-.48,2.87L37.37,52l3.14-.34,1.73,1.78.88,3.22,1.54,2.09,2.53-.66.6-3.39S46.2,51.34,46.84,50.91Z"/><path class="cls-8" d="M38.22,61.33l-1.06-1.21-1-1L35,58.46l-.51-.13L34,57.46l-1.06-.21-.12-.45-.36-1.39-.24-.94-.57-.33-.49-.88-.43-.63L30,51.81l-1.14.3s-1.63-.54-2.09,1.54-1.66,2.18-1.3,3.57a17.34,17.34,0,0,1,.39,3.35l.3,1.14.69-.18.76-.94,1.27-.85.76-.94,1.21-1.06.94-.24,1.55,1.09-.51.88.1,1.2-1.14.3-1,.79-.45.12-.94.24-.65.76-.27.81v1l.36.39.81.27,1.51.09.94-.24,1.14-.3,1.63-.42L38.64,63Z"/><path class="cls-9" d="M38.22,61.33l-1.06-1.21-1-1L35,58.46l-.51-.13L34,57.46l-1.06-.21-.12-.45-.36-1.39-.24-.94-.57-.33-.49-.88-.43-.63L30,51.81l-1.14.3s-1.63-.54-2.09,1.54-1.66,2.18-1.3,3.57a17.34,17.34,0,0,1,.39,3.35l.3,1.14.69-.18.76-.94,1.27-.85.76-.94,1.21-1.06.94-.24,1.55,1.09-.51.88.1,1.2-1.14.3-1,.79-.45.12-.94.24-.65.76-.27.81v1l.36.39.81.27,1.51.09.94-.24,1.14-.3,1.63-.42L38.64,63Z"/><polygon class="cls-10" points="51.84 83.47 50.88 84.51 52.15 84.66 52.9 83.68 51.84 83.47"/><polygon class="cls-11" points="51.84 83.47 50.88 84.51 52.15 84.66 52.9 83.68 51.84 83.47"/><path class="cls-10" d="M74.7,79.85,75,81C76.94,80.75,74.7,79.85,74.7,79.85Z"/><path class="cls-11" d="M74.7,79.85,75,81C76.94,80.75,74.7,79.85,74.7,79.85Z"/></g></g></svg>